<?xml version="1.0" standalone="no"?>
<!DOCTYPE svg PUBLIC "-//W3C//DTD SVG 20010904//EN"
 "http://www.w3.org/TR/2001/REC-SVG-20010904/DTD/svg10.dtd">
<svg version="1.0" xmlns="http://www.w3.org/2000/svg"
 width="300.000000pt" height="300.000000pt" viewBox="0 0 300.000000 300.000000"
 preserveAspectRatio="xMidYMid meet">
<metadata>
Created by potrace 1.11, written by Peter Selinger 2001-2013
</metadata>
<g transform="translate(0.000000,300.000000) scale(0.100000,-0.100000)"
fill="#000000" stroke="none">
<path d="M1 1678 c0 -1053 3 -1315 13 -1283 12 39 13 40 53 37 34 -3 47 2 76
28 l35 31 12 -38 c25 -75 27 -77 61 -49 24 21 34 23 54 16 16 -6 34 -6 51 0
42 16 53 12 56 -22 2 -25 8 -34 26 -36 27 -4 27 -2 1 -56 -12 -24 -19 -50 -16
-59 3 -8 24 -17 47 -20 23 -3 44 -8 47 -11 3 -3 -15 -28 -41 -56 -26 -28 -44
-54 -41 -60 3 -5 24 -19 45 -31 44 -25 46 -38 9 -56 -19 -10 231 -13 1244 -13
l1267 0 -1 1303 c0 745 -4 1293 -9 1281 -12 -31 -23 -35 -57 -22 -26 10 -37 8
-71 -10 l-40 -21 -17 45 c-18 47 -29 52 -61 30 -30 -21 -111 -9 -130 19 -8 13
-24 25 -34 28 -19 5 -19 7 -5 48 20 55 15 66 -34 79 -23 6 -41 14 -41 18 0 4
16 27 35 51 19 24 32 47 30 52 -3 4 -23 18 -45 30 -46 26 -48 32 -18 53 20 15
-95 16 -1240 16 l-1262 0 1 -1322z m1903 103 c34 -32 46 -78 46 -181 0 -104
-12 -148 -46 -176 l-26 -22 31 -82 c18 -45 30 -89 27 -97 -4 -10 -18 -13 -43
-11 -34 3 -37 6 -54 54 -23 68 -47 104 -70 104 -17 0 -19 -8 -19 -79 l0 -80
-47 2 -48 2 0 288 c0 245 2 289 15 298 8 5 59 8 112 7 86 -3 99 -6 122 -27z
m454 4 c7 -3 12 -20 12 -41 0 -29 -10 -49 -45 -91 l-44 -54 33 -33 c64 -65 89
-162 67 -267 -16 -77 -27 -89 -84 -91 -26 0 -49 1 -52 4 -3 2 4 22 15 43 24
47 27 140 6 190 -12 27 -23 36 -58 46 -24 6 -49 13 -55 15 -8 2 -13 22 -13 53
0 44 4 53 30 73 56 41 33 58 -77 58 l-63 0 0 48 c0 27 3 52 7 56 7 7 295 -1
321 -9z m-773 -50 l0 -50 -67 -3 -68 -3 0 -89 0 -90 49 0 c41 0 50 -3 54 -21
3 -12 3 -35 0 -50 -5 -27 -9 -29 -55 -29 l-49 0 3 -93 3 -94 -51 -2 -52 -2 -7
235 c-4 129 -4 260 0 291 l7 56 116 -3 117 -3 0 -50z m-1252 33 c9 -7 29 -62
46 -122 16 -59 32 -110 34 -112 2 -2 14 40 26 94 34 142 41 152 100 152 32 0
53 -5 62 -16 12 -15 20 -102 43 -456 l6 -98 -49 0 c-47 0 -49 1 -54 33 -4 17
-9 88 -12 157 -4 69 -9 131 -11 139 -3 8 -20 -29 -39 -84 -61 -178 -93 -177
-152 1 l-38 117 -10 -184 -10 -184 -45 4 c-25 1 -47 4 -49 6 -6 6 18 544 24
555 9 14 108 12 128 -2z m503 -197 c-4 -108 -9 -233 -12 -278 l-6 -83 -43 0
c-36 0 -45 4 -50 21 -7 20 -2 211 11 436 6 112 8 114 78 104 l28 -4 -6 -196z
m217 97 c25 -62 49 -113 53 -113 5 1 27 50 49 110 l41 110 48 3 c27 2 53 -1
57 -5 5 -5 -22 -86 -62 -186 l-72 -177 37 -87 c21 -49 40 -93 42 -99 3 -7 -16
-11 -55 -12 -56 -1 -60 1 -71 29 -16 37 -35 37 -49 -1 -9 -28 -13 -30 -65 -30
-31 0 -56 2 -56 5 0 2 18 51 40 107 22 57 40 107 40 112 0 4 -30 80 -66 167
-36 87 -63 163 -59 169 3 5 28 10 55 10 l48 0 45 -112z m1687 90 c51 -27 75
-66 91 -154 13 -70 6 -315 -10 -360 -11 -28 -16 -31 -57 -31 -42 -1 -45 1 -39
21 10 30 18 308 11 359 -9 57 -17 67 -61 77 -95 21 -110 -14 -110 -266 l0
-190 -47 -1 c-35 -1 -48 3 -53 15 -11 29 -7 329 6 392 14 74 43 119 89 142 49
25 126 23 180 -4z m-700 -163 c7 -9 10 -18 7 -21 -10 -11 -37 5 -37 21 0 19
14 19 30 0z m-1900 -14 c0 -5 -7 -14 -15 -21 -16 -14 -18 -10 -9 14 6 17 24
22 24 7z m2774 -66 c3 -9 0 -15 -9 -15 -8 0 -15 7 -15 15 0 8 4 15 9 15 5 0
11 -7 15 -15z m-1628 -122 c5 -26 2 -39 -10 -51 -16 -16 -19 -15 -37 7 -21 26
-25 81 -7 99 17 17 46 -12 54 -55z m694 12 c0 -16 -6 -25 -15 -25 -15 0 -21
31 -8 43 13 14 23 6 23 -18z m-1052 -106 c-11 -33 -28 -39 -28 -10 0 31 11 50
25 45 10 -4 11 -12 3 -35z m604 4 c34 -30 17 -54 -26 -37 -18 7 -22 54 -4 54
6 0 20 -7 30 -17z m-1022 -68 c0 -44 4 -64 21 -135 3 -11 -6 -16 -33 -18 -40
-3 -43 1 -50 68 -3 22 -8 25 -53 28 -27 2 -54 7 -59 12 -15 15 23 49 94 85 74
38 79 35 80 -40z m2410 -20 c47 -61 47 -85 2 -85 -48 0 -57 -21 -33 -76 21
-47 26 -74 15 -74 -11 0 -113 60 -119 70 -3 5 -1 11 5 15 5 3 10 16 10 29 0
12 11 37 25 56 14 19 25 43 25 54 0 30 11 66 20 66 4 0 27 -25 50 -55z m-787
-3 c-30 -4 -38 2 -29 23 5 14 8 14 30 -2 l24 -18 -25 -3z m242 -163 c20 -39
35 -80 33 -91 -3 -18 -7 -17 -48 16 -34 28 -51 35 -71 31 -21 -5 -31 1 -52 29
l-27 35 52 25 c29 13 59 25 65 25 7 1 29 -31 48 -70z m-2215 6 c8 -34 6 -38
-23 -56 -37 -22 -67 -25 -67 -5 0 16 70 109 77 102 3 -2 8 -21 13 -41z m1489
18 c37 -21 39 -35 9 -48 -24 -10 -28 -31 -14 -72 14 -43 -30 -26 -81 32 -48
54 -49 54 -105 54 -31 -1 -64 3 -74 9 -15 8 -12 11 17 17 19 5 72 11 119 15
47 4 88 8 92 9 3 0 20 -7 37 -16z m361 -10 c68 -38 75 -66 25 -93 -20 -11 -28
-10 -57 7 -40 23 -70 89 -47 104 20 13 24 12 79 -18z m-1075 -15 c24 -2 30 -8
30 -28 0 -28 -34 -50 -79 -50 -16 0 -44 -9 -62 -21 -34 -21 -54 -19 -54 6 0 7
23 38 52 69 45 49 53 54 67 42 9 -8 30 -16 46 -18z m1693 -10 c56 -66 56 -67
31 -94 -31 -33 -46 -30 -91 16 -28 31 -38 49 -38 74 0 18 3 36 7 40 15 15 65
-4 91 -36z m-1402 -4 c28 11 13 -20 -35 -71 -52 -58 -85 -68 -95 -30 -3 13
-17 29 -31 35 -37 17 -30 52 13 74 31 15 39 15 84 2 27 -9 56 -13 64 -10z"/>
<path d="M1772 1688 c-8 -8 -12 -48 -12 -115 0 -113 7 -127 56 -105 23 11 24
15 24 110 0 100 -7 122 -40 122 -9 0 -21 -5 -28 -12z"/>
<path d="M0 114 l0 -114 110 0 c61 0 110 3 110 6 0 3 -49 55 -110 114 l-110
109 0 -115z"/>
</g>
</svg>
